<svg width="32" height="20" viewBox="0 0 32 34" fill="none" xmlns="http://www.w3.org/2000/svg">
<path d="M12 28.5372C4.83333 30.8705 4.83333 24.3705 2 23.5372M22 31.8705V26.0372C22 24.3705 22.1667 23.7039 21.1667 22.7039C25.8333 22.2039 30.3333 20.3705 30.3333 12.7039C30.3313 10.7121 29.5542 8.79937 28.1667 7.37052C28.8174 5.64047 28.7575 3.72324 28 2.03719C28 2.03719 26.1667 1.53719 22.1667 4.20386C18.7787 3.3215 15.2213 3.3215 11.8333 4.20386C7.83333 1.53719 6 2.03719 6 2.03719C5.24247 3.72324 5.18256 5.64047 5.83333 7.37052C4.44575 8.79937 3.6687 10.7121 3.66667 12.7039C3.66667 20.3705 8.16667 22.2039 12.8333 22.7039C11.8333 23.7039 11.8333 24.7039 12 26.0372V31.8705" stroke="currentColor" stroke-width="2.5" stroke-linecap="round" stroke-linejoin="round"/>
</svg>
